# xmcd
#
# Track frame offsets: 
#        150
#        26755
#        41105
#        57497
#        72140
#        83287
#        100925
#        117477
#        129252
#        148445
#
# Disc length: 2130 seconds
#
# Revision: 2
# Processed by: cddbd v1.5.2PL0 Copyright (c) Steve Scherf et al.
# Submitted via: ExactAudioCopy v0.95a5
#
DISCID=8d08500a
DTITLE=Nikos Karvelas - O Teleftaios Xoros
DYEAR=1991
DGENRE=Blues
TTITLE0=O Teleftaios Xoros
TTITLE1=Paei Yia Tsai
TTITLE2=Mou Lipeis
TTITLE3=Kati Pou Den Fa Teleioname Pote
TTITLE4=Ding-Dong
TTITLE5=Vromiko Motel
TTITLE6=Aoroti Klosti
TTITLE7=Kakia Sinifia
TTITLE8=Den Sagapo
TTITLE9=Sta 79
EXTD=
EXTT0=
EXTT1=
EXTT2=
EXTT3=
EXTT4=
EXTT5=
EXTT6=
EXTT7=
EXTT8=
EXTT9=
PLAYORDER=
